<svg width="14" height="16" viewBox="0 0 14 16" fill="none" xmlns="http://www.w3.org/2000/svg">
<path d="M11.6924 8.50033C11.7164 10.9216 13.9751 11.7274 14 11.7377C13.9809 11.7944 13.6392 12.886 12.8102 14.0133C12.0936 14.9879 11.3497 15.959 10.1781 15.9794C9.02696 15.9989 8.65674 15.3439 7.34044 15.3439C6.02456 15.3439 5.61338 15.959 4.5235 15.9989C3.39251 16.0389 2.53126 14.9448 1.80869 13.9739C0.332261 11.9874 -0.796095 8.36059 0.718944 5.91244C1.47155 4.69668 2.81678 3.9269 4.27673 3.90707C5.38724 3.88737 6.43546 4.60227 7.1143 4.60227C7.79273 4.60227 9.06654 3.74248 10.4057 3.86869C10.9663 3.89046 12.5399 4.07939 13.5503 5.45589C13.4691 5.50289 11.6728 6.47602 11.6924 8.50033ZM9.52879 2.55466C10.1292 1.87839 10.5333 0.936682 10.4231 0C9.55757 0.032326 8.51101 0.536664 7.8903 1.21268C7.33394 1.81116 6.84678 2.76935 6.97812 3.68749C7.94289 3.75703 8.92828 3.23132 9.52879 2.55466Z" fill="black"/>
</svg>
