<svg width="16" height="16" viewBox="0 0 16 16" fill="none" xmlns="http://www.w3.org/2000/svg">
<path d="M15.999 8.17842C16.0087 7.62846 15.9507 7.07936 15.8265 6.54297H8.16284V9.51171H12.6613C12.5761 10.0322 12.3843 10.5305 12.0976 10.9765C11.8108 11.4226 11.4349 11.8071 10.9926 12.1071L10.9769 12.2066L13.4001 14.0463L13.5679 14.0627C15.1097 12.6672 15.9987 10.6138 15.9987 8.17842" fill="#4285F4"/>
<path d="M8.16259 15.9996C10.3664 15.9996 12.2166 15.2885 13.5681 14.0619L10.9923 12.1063C10.3031 12.5775 9.37797 12.9064 8.16259 12.9064C7.13037 12.9005 6.12627 12.5762 5.29274 11.9794C4.4592 11.3827 3.83857 10.5439 3.51888 9.58203L3.42322 9.59002L0.903538 11.501L0.870605 11.5908C1.54922 12.9163 2.59066 14.0306 3.87849 14.8092C5.16631 15.5878 6.64974 16 8.1629 15.9996" fill="#34A853"/>
<path d="M3.51893 9.58119C3.34039 9.07197 3.24826 8.5375 3.24622 7.99907C3.2495 7.46151 3.33823 6.92773 3.50921 6.41695L3.50466 6.3109L0.954085 4.36914L0.870655 4.40803C0.298188 5.52192 0 6.75178 0 7.99899C0 9.2462 0.298188 10.4761 0.870655 11.59L3.51893 9.58119Z" fill="#FBBC05"/>
<path d="M8.1629 3.09379C9.33254 3.07599 10.4637 3.50289 11.3191 4.28491L13.6229 2.08049C12.1453 0.72204 10.1887 -0.0233217 8.1629 0.000556492C6.64975 0.000203663 5.16634 0.412358 3.87851 1.19093C2.59069 1.96951 1.54924 3.08381 0.870605 4.40925L3.5101 6.41817C3.83293 5.45644 4.45563 4.61828 5.29039 4.02185C6.12515 3.42542 7.12987 3.10081 8.1629 3.09379Z" fill="#EB4335"/>
</svg>
